<svg width="49" height="49" viewBox="0 0 49 49" fill="none" xmlns="http://www.w3.org/2000/svg">
<circle cx="24.3523" cy="24.3522" r="16.9113" fill="url(#paint0_linear_2_1462)"/>
<g filter="url(#filter0_i_2_1462)">
<circle cx="24.3523" cy="24.3523" r="15.2202" fill="url(#paint1_linear_2_1462)"/>
</g>
<circle cx="24.3523" cy="24.3523" r="14.7202" stroke="#2E2E4D"/>
<path d="M24.4218 13.3599L17.5878 24.8309L24.4218 28.6136L31.2558 24.8309L24.4218 13.3599Z" fill="#17204D" fill-opacity="0.5"/>
<path d="M24.4218 21.3403L17.5878 24.831L24.4218 28.6137L31.2558 24.831L24.4218 21.3403Z" fill="#17204D" fill-opacity="0.5"/>
<path d="M24.4218 35.3446L17.5878 26.0142L24.4218 29.7969L31.2558 26.0142L24.4218 35.3446Z" fill="#17204D" fill-opacity="0.5"/>
<path d="M31.2556 26.014L24.4216 29.7968V35.3445L31.2556 26.014ZM31.2556 24.8309L24.4216 13.3599V28.6136L31.2556 24.8309Z" fill="#17204D" fill-opacity="0.5"/>
<path d="M24.4216 28.6137L31.2556 24.831L24.4216 21.3403V28.6137Z" fill="#17204D" fill-opacity="0.5"/>
<ellipse cx="24.3523" cy="24.3522" rx="22.3229" ry="22.3229" fill="white" fill-opacity="0.08" stroke="white" stroke-opacity="0.2" stroke-width="0.5"/>
<ellipse cx="24.3522" cy="24.3522" rx="22.3229" ry="22.3229" fill="white" fill-opacity="0.08" stroke="white" stroke-opacity="0.2" stroke-width="0.5"/>
<path fill-rule="evenodd" clip-rule="evenodd" d="M2.02938 24.0918C2.02938 21.4504 2.02938 14.8651 9.8424 7.61017C8.72626 24.0918 17.2941 36.0719 29.375 36.0719C36.0672 36.0719 41.9474 32.9578 46.6752 28.9376C44.4574 39.0814 35.422 46.6753 24.6129 46.6753C12.1404 46.6753 2.02938 36.5643 2.02938 24.0918Z" fill="black" fill-opacity="0.1"/>
<path fill-rule="evenodd" clip-rule="evenodd" d="M44.6459 24.5893C44.6459 26.9906 44.6459 32.9772 37.5431 39.5726C38.5578 24.5893 30.7689 13.6983 19.7862 13.6983C13.7024 13.6983 8.35672 16.5293 4.05872 20.184C6.07489 10.9624 14.2889 4.05884 24.1154 4.05884C35.4541 4.05884 44.6459 13.2506 44.6459 24.5893Z" fill="white" fill-opacity="0.1"/>
<path d="M43.6384 23.2082C43.6384 14.7129 37.0358 5.58079 26.3817 5.07347C24.3115 4.97489 19.2789 6.08815 18.2642 11.1615C28.2797 11.1615 38.5578 20.4249 38.5578 30.4404C42.6165 29.4258 43.6384 25.7988 43.6384 23.2082Z" fill="url(#paint2_linear_2_1462)" fill-opacity="0.4"/>
<defs>
<filter id="filter0_i_2_1462" x="9.13208" y="9.13208" width="30.4404" height="30.4404" filterUnits="userSpaceOnUse" color-interpolation-filters="sRGB">
<feFlood flood-opacity="0" result="BackgroundImageFix"/>
<feBlend mode="normal" in="SourceGraphic" in2="BackgroundImageFix" result="shape"/>
<feColorMatrix in="SourceAlpha" type="matrix" values="0 0 0 0 0 0 0 0 0 0 0 0 0 0 0 0 0 0 127 0" result="hardAlpha"/>
<feOffset dy="2"/>
<feComposite in2="hardAlpha" operator="arithmetic" k2="-1" k3="1"/>
<feColorMatrix type="matrix" values="0 0 0 0 1 0 0 0 0 1 0 0 0 0 1 0 0 0 0.6 0"/>
<feBlend mode="normal" in2="shape" result="effect1_innerShadow_2_1462"/>
</filter>
<linearGradient id="paint0_linear_2_1462" x1="24.3523" y1="7.44092" x2="24.3523" y2="41.2635" gradientUnits="userSpaceOnUse">
<stop stop-color="#E1E6F0"/>
<stop offset="1" stop-color="#939CCC"/>
</linearGradient>
<linearGradient id="paint1_linear_2_1462" x1="24.3523" y1="9.13208" x2="24.3523" y2="39.5724" gradientUnits="userSpaceOnUse">
<stop stop-color="#E1E6F0"/>
<stop offset="1" stop-color="#939CCC"/>
</linearGradient>
<linearGradient id="paint2_linear_2_1462" x1="36.3772" y1="8.70039" x2="24.4601" y2="23.2081" gradientUnits="userSpaceOnUse">
<stop stop-color="white"/>
<stop offset="1" stop-color="white" stop-opacity="0"/>
</linearGradient>
</defs>
</svg>
